<?xml version="1.0" encoding="UTF-8"?>
<svg id="Layer_1" data-name="Layer 1" xmlns="http://www.w3.org/2000/svg" viewBox="0 0 1109 289.29">
  <defs>
    <style>
      .cls-1 {
        fill: #fff;
      }

      .cls-2 {
        fill: aqua;
      }
    </style>
  </defs>
  <path class="cls-1" d="m325.57,0c-63.34,0-106.55,48.55-106.55,123.8,0,60.14,26.69,102.98,69.65,118.28,4.88-1.57,9.64-2.72,14.27-3.47-25.72-15.1-42.18-56.88-42.18-114.81,0-72.82,26.51-120.33,64.81-120.33s64.81,47.51,64.81,120.33c0,61.59-18.61,104.93-47.17,117.35.43.12.86.24,1.28.36,3.33.96,6.55,2.06,9.67,3.26,47.57-12.61,77.96-57.1,77.96-120.97C432.12,48.55,388.91,0,325.57,0Z"/>
  <path class="cls-2" d="m432.87,269.87c-1.12.94-19.22,19.42-43.44,19.42-37.69,0-70.69-26.16-98.33-27.5-11.47-.55-26.93,6.1-26.94,6.1h0s23.56-16.33,43.37-18.82h0c3.97-.46,7.13-.67,10.06-.67,5.41,0,10.01.74,17.43,2.07,2.17.46,4.3.99,6.38,1.6,25.04,7.2,43.62,22.51,65.11,23.47,13.52.6,26.35-5.67,26.35-5.67Z"/>
  <path class="cls-1" d="m225.05,241.13c-3.16-3.06-5.79-7.31-7.9-12.73L123.97,0h-10.66L18.95,228.05c-3.42,6.36-6.84,10.84-10.27,13.44-3.16,2.59-6.05,4.48-8.69,5.66v.35h40.27v-.35c-1.32-.47-2.9-1.06-4.74-1.77-1.58-.94-3.03-2.12-4.34-3.54-1.32-1.65-2.24-3.54-2.76-5.66-.26-2.12.13-4.71,1.18-7.78l22.9-55.15h99.89l22.9,56.92c1.84,5.42,2.11,9.31.79,11.67-1.05,2.36-2.24,4.12-3.55,5.3v.35h59.22v-.35l-6.71-6.01ZM56.06,164.41l46.59-112.78,45.8,112.78H56.06Z"/>
  <path class="cls-1" d="m448.04,0h52.12v.35c-1.32,1.18-2.76,3.18-4.34,6.01-1.32,2.59-1.97,6.95-1.97,13.08v144.25c0,10.61,1.71,19.92,5.13,27.93,3.68,8.01,8.42,14.73,14.21,20.15,6.05,5.19,12.77,9.07,20.14,11.67,7.37,2.59,15,3.89,22.9,3.89s15.66-1.3,23.29-3.89c7.63-2.83,14.35-6.84,20.14-12.02,6.05-5.42,10.79-12.02,14.21-19.8,3.68-8.01,5.53-17.32,5.53-27.93V23.34c0-6.13-1.05-11.31-3.16-15.56-1.84-4.48-5-6.95-9.48-7.42V0h35.14v.35c-4.47.47-7.76,2.95-9.87,7.42-1.84,4.24-2.76,9.31-2.76,15.2v140.71c0,14.14-2.5,26.63-7.5,37.48-5,10.61-11.58,19.56-19.74,26.87-8.16,7.07-17.5,12.37-28.03,15.91-10.27,3.54-20.79,5.3-31.59,5.3s-21.85-1.77-32.38-5.3c-10.53-3.77-20-9.19-28.43-16.26-8.16-7.07-14.74-15.91-19.74-26.52-5-10.84-7.5-23.33-7.5-37.48V19.45c0-6.13-.79-10.49-2.37-13.08-1.32-2.83-2.63-4.83-3.95-6.01V0Z"/>
  <path class="cls-1" d="m840.53,234.77c-5.53-5.19-10.53-11.08-15-17.68-4.47-6.6-8.69-13.55-12.63-20.86-3.95-7.54-8.29-14.5-13.03-20.86-4.74-6.36-10.27-11.79-16.58-16.26-6.32-4.48-14.08-7.07-23.29-7.78,18.95-2.59,34.35-8.13,46.19-16.62,11.84-8.49,20.27-18.27,25.27-29.34,5.26-11.31,7.24-23.1,5.92-35.36-1.32-12.49-5.66-23.92-13.03-34.29-7.37-10.37-17.77-18.86-31.19-25.46C780,3.42,764.07,0,745.38,0h-87.26v.35c1.32,1.18,2.63,3.18,3.95,6.01,1.58,2.59,2.37,6.95,2.37,13.08v208.6c0,6.13-.79,10.61-2.37,13.44-1.32,2.59-2.63,4.48-3.95,5.66v.35h52.12v-.35c-1.32-1.18-2.76-3.06-4.34-5.66-1.32-2.83-1.97-7.31-1.97-13.44v-72.83h31.59c6.84,1.41,12.37,4.71,16.58,9.9,4.21,5.19,7.9,11.31,11.05,18.38,3.42,7.07,6.71,14.5,9.87,22.27,3.42,7.78,7.63,14.97,12.63,21.57,5,6.6,11.19,12.02,18.56,16.26,7.63,4.24,17.24,6.36,28.82,6.36,7.63,0,16.98-1.3,28.03-3.89v-1.41c-8.16-1.65-15-4.95-20.53-9.9Zm-109.37-88.39h-27.24V8.84h37.9c12.63.24,23.16,3.77,31.59,10.61,8.69,6.84,15,15.44,18.95,25.81,3.95,10.14,5.66,21.1,5.13,32.88-.53,11.79-3.29,22.75-8.29,32.88-5,10.14-12.37,18.62-22.11,25.46-9.48,6.6-21.45,9.9-35.93,9.9Z"/>
  <path class="cls-1" d="m1102.29,241.13c-3.16-3.06-5.79-7.31-7.9-12.73L1001.21,0h-10.66l-94.36,228.04c-3.42,6.36-6.84,10.84-10.27,13.44-3.16,2.59-6.05,4.48-8.69,5.66v.35h40.27v-.35c-1.32-.47-2.9-1.06-4.74-1.77-1.58-.94-3.03-2.12-4.34-3.54-1.32-1.65-2.24-3.54-2.76-5.66-.26-2.12.13-4.71,1.18-7.78l22.9-55.15h99.89l22.9,56.92c1.84,5.42,2.11,9.31.79,11.67-1.05,2.36-2.24,4.12-3.55,5.3v.35h59.22v-.35c-1.32-1.18-3.55-3.18-6.71-6.01Zm-168.98-76.72l46.59-112.78,45.8,112.78h-92.39Z"/>
</svg>