<svg width="630" height="630" viewBox="0 0 630 630" fill="none" xmlns="http://www.w3.org/2000/svg">
<path d="M465.262 59.0777L461.479 56.8909L470.243 40.9066L474.756 43.5099L465.262 59.0777Z" fill="#9F9F9F"/>
<path d="M573.109 168.486L570.922 164.703L586.49 155.244L589.093 159.756L573.109 168.486Z" fill="#9F9F9F"/>
<path d="M611.776 317.169V312.796L630 312.397V317.603L611.776 317.169Z" fill="#9F9F9F"/>
<path d="M570.922 465.263L573.109 461.479L589.093 470.244L586.49 474.756L570.922 465.263Z" fill="#9F9F9F"/>
<path d="M461.514 573.109L465.298 570.922L474.756 586.49L470.244 589.093L461.514 573.109Z" fill="#9F9F9F"/>
<path d="M312.831 611.777H317.204L317.604 630H312.397L312.831 611.777Z" fill="#9F9F9F"/>
<path d="M164.72 570.922L168.521 573.109L159.757 589.093L155.244 586.49L164.72 570.922Z" fill="#9F9F9F"/>
<path d="M56.8905 461.497L59.0773 465.298L43.5096 474.756L40.9062 470.244L56.8905 461.497Z" fill="#9F9F9F"/>
<path d="M18.2231 312.831V317.204L0 317.603V312.397L18.2231 312.831Z" fill="#9F9F9F"/>
<path d="M59.0773 164.72L56.8905 168.521L40.9062 159.756L43.5096 155.244L59.0773 164.72Z" fill="#9F9F9F"/>
<path d="M168.504 56.8909L164.703 59.0777L155.244 43.5099L159.757 40.9066L168.504 56.8909Z" fill="#9F9F9F"/>
<path d="M317.17 18.2231H312.796L312.397 0H317.604L317.17 18.2231Z" fill="#9F9F9F"/>
<path d="M346.498 9.42416L345.408 19.7802L346.702 19.9164L347.792 9.56045L346.498 9.42416Z" fill="#9F9F9F"/>
<path d="M378.236 14.3963L376.073 24.5823L377.346 24.8527L379.509 14.6667L378.236 14.3963Z" fill="#9F9F9F"/>
<path d="M409.295 22.6413L406.073 32.5438L407.311 32.9464L410.532 23.044L409.295 22.6413Z" fill="#9F9F9F"/>
<path d="M439.383 34.1234L435.143 43.6342L436.331 44.1642L440.572 34.6535L439.383 34.1234Z" fill="#9F9F9F"/>
<path d="M495.04 66.0947L488.919 74.5192L489.972 75.2843L496.093 66.8598L495.04 66.0947Z" fill="#9F9F9F"/>
<path d="M520.049 86.2796L513.079 94.0157L514.046 94.8871L521.016 87.151L520.049 86.2796Z" fill="#9F9F9F"/>
<path d="M542.854 108.957L535.115 115.923L535.986 116.891L543.725 109.924L542.854 108.957Z" fill="#9F9F9F"/>
<path d="M563.148 133.914L554.721 140.032L555.486 141.085L563.913 134.968L563.148 133.914Z" fill="#9F9F9F"/>
<path d="M595.365 189.422L585.854 193.663L586.384 194.852L595.895 190.611L595.365 189.422Z" fill="#9F9F9F"/>
<path d="M606.964 219.465L597.061 222.683L597.463 223.921L607.366 220.703L606.964 219.465Z" fill="#9F9F9F"/>
<path d="M615.345 250.466L605.159 252.631L605.43 253.904L615.615 251.739L615.345 250.466Z" fill="#9F9F9F"/>
<path d="M620.445 282.23L610.089 283.32L610.226 284.615L620.582 283.525L620.445 282.23Z" fill="#9F9F9F"/>
<path d="M610.267 345.416L610.13 346.711L620.486 347.801L620.623 346.507L610.267 345.416Z" fill="#9F9F9F"/>
<path d="M605.404 376.056L605.134 377.33L615.319 379.495L615.59 378.221L605.404 376.056Z" fill="#9F9F9F"/>
<path d="M597.428 406.075L597.026 407.313L606.929 410.531L607.332 409.293L597.428 406.075Z" fill="#9F9F9F"/>
<path d="M586.365 435.088L585.835 436.277L595.348 440.513L595.878 439.323L586.365 435.088Z" fill="#9F9F9F"/>
<path d="M555.456 488.878L554.691 489.932L563.116 496.052L563.881 494.999L555.456 488.878Z" fill="#9F9F9F"/>
<path d="M535.974 513.062L535.103 514.03L542.842 520.998L543.713 520.03L535.974 513.062Z" fill="#9F9F9F"/>
<path d="M514.058 535.094L513.09 535.964L520.058 543.703L521.025 542.832L514.058 535.094Z" fill="#9F9F9F"/>
<path d="M489.967 554.722L488.914 555.487L495.034 563.912L496.087 563.147L489.967 554.722Z" fill="#9F9F9F"/>
<path d="M436.261 585.92L435.072 586.449L439.306 595.963L440.495 595.433L436.261 585.92Z" fill="#9F9F9F"/>
<path d="M407.341 597.037L406.103 597.44L409.321 607.343L410.559 606.941L407.341 597.037Z" fill="#9F9F9F"/>
<path d="M377.347 605.138L376.074 605.409L378.239 615.595L379.512 615.324L377.347 605.138Z" fill="#9F9F9F"/>
<path d="M346.676 610.08L345.381 610.216L346.47 620.572L347.764 620.436L346.676 610.08Z" fill="#9F9F9F"/>
<path d="M283.318 610.105L282.228 620.461L283.523 620.597L284.613 610.241L283.318 610.105Z" fill="#9F9F9F"/>
<path d="M252.639 605.19L250.474 615.375L251.747 615.646L253.912 605.46L252.639 605.19Z" fill="#9F9F9F"/>
<path d="M222.669 597.018L219.448 606.92L220.686 607.323L223.907 597.42L222.669 597.018Z" fill="#9F9F9F"/>
<path d="M193.694 585.865L189.456 595.377L190.645 595.907L194.883 586.395L193.694 585.865Z" fill="#9F9F9F"/>
<path d="M140.025 554.71L133.902 563.133L134.955 563.899L141.077 555.475L140.025 554.71Z" fill="#9F9F9F"/>
<path d="M115.935 535.094L108.964 542.83L109.931 543.702L116.902 535.966L115.935 535.094Z" fill="#9F9F9F"/>
<path d="M94.0166 513.086L86.2769 520.052L87.1477 521.02L94.8874 514.054L94.0166 513.086Z" fill="#9F9F9F"/>
<path d="M74.5239 488.913L66.0962 495.03L66.8607 496.083L75.2884 489.967L74.5239 488.913Z" fill="#9F9F9F"/>
<path d="M43.6484 435.08L34.1377 439.321L34.6677 440.509L44.1785 436.269L43.6484 435.08Z" fill="#9F9F9F"/>
<path d="M32.5583 406.053L22.6553 409.273L23.0577 410.511L32.9607 407.291L32.5583 406.053Z" fill="#9F9F9F"/>
<path d="M24.5762 376.071L14.3901 378.234L14.6605 379.508L24.8466 377.344L24.5762 376.071Z" fill="#9F9F9F"/>
<path d="M19.795 345.364L9.43896 346.455L9.57525 347.749L19.9312 346.659L19.795 345.364Z" fill="#9F9F9F"/>
<path d="M9.57112 282.206L9.43506 283.5L19.7912 284.589L19.9273 283.294L9.57112 282.206Z" fill="#9F9F9F"/>
<path d="M14.6576 250.486L14.3867 251.76L24.572 253.926L24.8429 252.653L14.6576 250.486Z" fill="#9F9F9F"/>
<path d="M23.0492 219.446L22.647 220.684L32.5505 223.902L32.9528 222.664L23.0492 219.446Z" fill="#9F9F9F"/>
<path d="M34.6232 189.443L34.0938 190.632L43.6067 194.867L44.1361 193.678L34.6232 189.443Z" fill="#9F9F9F"/>
<path d="M66.8691 133.89L66.104 134.944L74.5285 141.064L75.2936 140.011L66.8691 133.89Z" fill="#9F9F9F"/>
<path d="M87.1512 108.938L86.2803 109.905L94.0188 116.873L94.8898 115.906L87.1512 108.938Z" fill="#9F9F9F"/>
<path d="M109.935 86.2748L108.968 87.1458L115.936 94.8843L116.903 94.0133L109.935 86.2748Z" fill="#9F9F9F"/>
<path d="M134.964 66.0832L133.911 66.8483L140.031 75.2727L141.084 74.5076L134.964 66.0832Z" fill="#9F9F9F"/>
<path d="M190.676 34.1089L189.487 34.6381L193.721 44.1518L194.91 43.6226L190.676 34.1089Z" fill="#9F9F9F"/>
<path d="M220.708 22.6175L219.47 23.0198L222.688 32.9233L223.926 32.5211L220.708 22.6175Z" fill="#9F9F9F"/>
<path d="M251.795 14.3769L250.521 14.6475L252.687 24.8332L253.96 24.5626L251.795 14.3769Z" fill="#9F9F9F"/>
<path d="M283.541 9.40642L282.246 9.54248L283.335 19.8987L284.629 19.7626L283.541 9.40642Z" fill="#9F9F9F"/>
</svg>
